<?xml version="1.0" standalone="no"?>
<!DOCTYPE svg PUBLIC "-//W3C//DTD SVG 20010904//EN"
 "http://www.w3.org/TR/2001/REC-SVG-20010904/DTD/svg10.dtd">
<svg version="1.0" xmlns="http://www.w3.org/2000/svg"
 width="16.000000pt" height="16.000000pt" viewBox="0 0 16.000000 16.000000"
 preserveAspectRatio="xMidYMid meet">
<metadata>
Created by potrace 1.16, written by Peter Selinger 2001-2019
</metadata>
<g transform="translate(0.000000,16.000000) scale(0.013223,-0.012598)"
fill="#000000" stroke="none">
<path d="M440 1075 l0 -45 60 0 c47 0 60 -3 60 -15 0 -9 -7 -18 -15 -21 -8 -4
-15 -12 -15 -20 0 -11 18 -14 75 -14 60 0 75 3 75 15 0 8 -7 15 -15 15 -8 0
-15 9 -15 20 0 18 7 20 60 20 l60 0 0 45 0 45 -165 0 -165 0 0 -45z"/>
<path d="M302 767 c-94 -95 -172 -179 -172 -187 1 -8 62 -79 138 -158 l137
-143 123 111 c68 62 122 116 120 121 -2 5 -30 40 -63 78 -51 59 -62 68 -74 56
-12 -12 -6 -22 38 -71 28 -32 50 -62 49 -66 -2 -5 -46 -47 -98 -93 l-95 -85
-78 82 c-42 46 -94 102 -114 126 l-36 43 164 165 c145 145 162 165 149 179
-14 13 -35 -4 -188 -158z"/>
<path d="M675 799 c-66 -60 -121 -113 -122 -117 -2 -4 28 -40 65 -81 56 -61
69 -71 79 -59 10 11 2 26 -42 75 l-55 61 95 86 c53 47 99 86 104 86 5 0 60
-54 122 -121 l112 -120 -182 -183 c-146 -147 -180 -185 -169 -194 11 -9 53 28
208 183 l194 194 -44 48 c-128 140 -235 253 -240 252 -3 0 -59 -50 -125 -110z"/>
</g>
</svg>
